<svg xmlns="http://www.w3.org/2000/svg" viewBox="0 0 125 125"><path fill="var(--title,#fff)" d="M50.886 44.154c1.034 2.471 2.897 4.288 4.896 6.177 2.706 2.556 5.504 5.199 6.755 9.957 2.012 7.649 1.088 15.966.863 17.685-4.043 3.302-8.625 2.398-13.891 1.202-.117-.066-.246-.117-.389-.124-.034-.002-.063.013-.095.014h-.002c-5.318-1.21-11.272-2.552-17.36.397-1.773.382-6.382.872-8.431-1.084a.9.9 0 0 0-1.269.031.9.9 0 0 0 .031 1.269c1.475 1.409 3.683 1.852 5.669 1.917-5.221 2.556-7.313 2.581-7.324 2.581-.488-.039-.915.359-.939.854s.359.915.854.939c.018 0 .043.002.079.002.56 0 3.431-.205 10.23-3.844 6.01-3.878 11.845-2.721 17.493-1.441-.556 3.308-3.247 4.148-7.475 5.133-1.43.334-2.92.684-4.325 1.21a.88.88 0 0 0-.438-.013c-.038.011-3.814.94-6.409-.872-.407-.284-.967-.183-1.249.223s-.185.966.223 1.249c1.4.976 2.992 1.319 4.386 1.407-1.382 1.204-2.444 2.891-2.915 5.377-.092.486.228.957.714 1.048.056.011.111.016.167.016a.9.9 0 0 0 .881-.73c.985-5.214 5.059-6.163 9.372-7.168 3.961-.922 8.044-1.881 8.85-6.477 4.239.946 8.297 1.644 12.071-.068-.913 2.071-4.004 7.419-12.112 9.16-6.055 1.301-8.263 3.338-10.398 5.309-1.628 1.502-3.164 2.92-6.572 3.898a.9.9 0 0 0-.614 1.111.9.9 0 0 0 .861.65c.081 0 .165-.011.248-.036 3.816-1.097 5.583-2.728 7.292-4.304.456-.422.912-.835 1.398-1.24-.705 1.807-1.168 4.404-.325 7.712.104.406.468.675.869.675.074 0 .149-.009.223-.029.481-.122.77-.61.648-1.091-1.452-5.7 1.533-8.851 1.66-8.982.106-.108.167-.235.208-.37 1.256-.58 2.816-1.104 4.88-1.547 6.94-1.49 10.558-5.424 12.315-8.214-.101 2.581.224 5.251.7 7.929-5.799 3.582-8.313 9.09-10.305 14.244-.007.007-.018.009-.025.016-.032.031-3.116 2.977-7.084 2.313-.49-.086-.951.248-1.034.738s.248.951.738 1.034a9.02 9.02 0 0 0 1.495.124c1.91 0 3.541-.608 4.772-1.267-1.062 2.749-2.154 5.296-3.74 7.121a.9.9 0 0 0 .088 1.267c.17.147.379.221.589.221a.89.89 0 0 0 .677-.309c2.071-2.383 3.309-5.644 4.618-9.097 2.03-5.35 4.165-10.849 9.567-14.478l.343 1.732.799 4.261c-.429 2.064-1.917 3.963-3.365 5.8-1.861 2.358-3.783 4.795-3.48 7.676a.9.9 0 0 0 .892.804 1.01 1.01 0 0 0 .095-.005c.494-.052.851-.494.799-.985-.226-2.154 1.391-4.205 3.105-6.377.844-1.07 1.698-2.157 2.392-3.315.113 1.735.045 3.356-.357 4.795l-.42 1.321c-1.513 4.715-3.227 10.057-1.762 15.07a.9.9 0 0 0 .861.646c.083 0 .167-.011.251-.036a.9.9 0 0 0 .61-1.113c-1.007-3.446-.319-7.103.734-10.739.404.896.931 1.656 1.43 2.367 1.086 1.54 2.024 2.871 1.735 5.38a.9.9 0 0 0 .788.994c.036.004.07.005.104.005a.9.9 0 0 0 .89-.795c.366-3.187-.919-5.011-2.051-6.619-1.03-1.463-1.919-2.728-1.764-4.986l.314-.985c.743-2.662.535-5.691.016-8.918a.87.87 0 0 0-.057-.355c-.23-1.384-.508-2.798-.797-4.241l-.126-.635c4.634 3.613 6.594 8.747 8.487 13.737 1.31 3.451 2.547 6.712 4.618 9.095.178.205.427.309.677.309.21 0 .418-.074.589-.221a.9.9 0 0 0 .088-1.267c-1.587-1.825-2.678-4.37-3.74-7.12 1.231.659 2.861 1.265 4.768 1.265.483 0 .982-.038 1.495-.124a.9.9 0 0 0 .738-1.034.9.9 0 0 0-1.034-.738c-3.968.669-7.053-2.283-7.084-2.313-.007-.007-.016-.009-.022-.014-1.962-5.077-4.444-10.488-10.057-14.076-.63-3.446-1.045-6.872-.578-10.007 1.097 2.443 4.562 8.234 13.342 10.12 2.06.443 3.62.966 4.874 1.545a.9.9 0 0 0 .142.293c.086.113 2.096 2.854.635 8.591-.122.481.167.969.648 1.091.075.02.149.029.223.029.4 0 .765-.269.869-.675.892-3.503.607-6.062.124-7.746.745.562 1.394 1.147 2.044 1.746 1.71 1.578 3.478 3.209 7.294 4.304a.92.92 0 0 0 .249.036.9.9 0 0 0 .861-.65.9.9 0 0 0-.614-1.111c-3.408-.978-4.944-2.398-6.572-3.898-2.136-1.971-4.343-4.008-10.398-5.309-8.46-1.816-11.452-7.548-12.213-9.401 3.702 1.981 7.836 1.299 12.177.33.815 4.578 4.891 5.535 8.844 6.457 4.313 1.007 8.387 1.954 9.372 7.168.081.431.458.73.881.73.056 0 .111-.005.167-.016.486-.091.808-.562.714-1.048-.459-2.43-1.484-4.101-2.819-5.3 1.21-.102 2.563-.447 3.824-1.328.407-.284.506-.844.223-1.249a.9.9 0 0 0-1.249-.223c-2.565 1.791-5.849.741-5.881.732-.167-.056-.334-.043-.494-.004-1.407-.528-2.898-.879-4.331-1.211-4.219-.983-6.908-1.822-7.471-5.113 5.034-1.149 10.214-2.204 15.501.31.075.059.163.097.257.129a17.04 17.04 0 0 1 1.795 1.019c6.737 3.602 9.605 3.807 10.167 3.807.036 0 .061 0 .079-.002.488-.023.861-.434.847-.924s-.42-.87-.905-.87c.021-.016-2.107-.016-7.346-2.575 2.161-.036 4.6-.454 6.138-1.922a.9.9 0 0 0 .031-1.269.9.9 0 0 0-1.269-.031c-2.037 1.945-6.931 1.47-8.871 1.088-6.052-2.965-12.01-1.615-17.331-.395-.063-.004-.109-.022-.162-.02-.162.009-.302.072-.429.154-5.093 1.159-9.528 2.014-13.229-1.12.223-1.707.831-7.491-.054-13.824.066-.501.7-4.137 5.176-8.765.309-.318.635-.641.982-.969 3.586-3.397 4.09-5.786 4.533-7.891.156-.743.31-1.42.58-2.103l-1.269-1.539c-.608 1.156-.856 2.227-1.075 3.265-.341 1.621-.716 3.295-2.676 5.556.036-1.294-.224-2.88-1.147-4.659-.567-1.097-1.014-2.362-1.348-3.76l-2.096-1.326c.368 2.247.985 4.237 1.849 5.908 1.757 3.392.635 5.745.294 6.342-2.333 2.428-3.695 4.612-4.494 6.308l-.188-.802c-.966-3.676-2.789-6.213-4.738-8.304-.092-.181-1.784-3.677-.669-7.69l-1.592-1.019c-.75 2.256-.712 4.374-.425 6.046-1.583-1.495-2.965-2.868-3.878-4.505zm53.3-2.263a.9.9 0 0 1-.623-.499c-.118-.253-.111-.549.02-.797.416-.791.637-1.682.637-2.579a5.5 5.5 0 0 0-3.105-4.973.9.9 0 0 1-.244-1.436 4.33 4.33 0 0 0 1.247-3.049c0-2.416-2.039-4.363-4.395-4.356-.244 0-.542-.093-.711-.264-.178-.179-.346-.424-.334-.677l.009-.303c0-3.051-2.482-5.535-5.535-5.535-1.267 0-2.461.418-3.451 1.208-.224.179-.52.24-.799.163s-.501-.284-.601-.553c-.628-1.691-2.265-2.83-4.069-2.836-.284 0-.551-.136-.72-.366s-.217-.526-.133-.797a5.52 5.52 0 0 0 .248-1.644c0-3.051-2.482-5.535-5.535-5.535-1.289 0-2.543.454-3.534 1.276a.9.9 0 0 1-.754.188c-.267-.056-.495-.228-.619-.472a4.36 4.36 0 0 0-3.272-2.342c-.407-.056-.723-.382-.768-.79C66.841 2.117 64.476 0 61.647 0a5.57 5.57 0 0 0-5.404 4.336.9.9 0 0 1-.402.567c-.205.127-.454.167-.687.111a4.36 4.36 0 0 0-1.043-.126c-2.401 0-4.356 1.954-4.356 4.356a5.07 5.07 0 0 0 .016.372.9.9 0 0 1-.319.763c-.224.188-.526.257-.808.178a5.57 5.57 0 0 0-5.454 1.529c-.176.183-.391.28-.673.278-.253-.007-.492-.12-.657-.31-.831-.962-2.032-1.513-3.299-1.513-2.401 0-4.356 1.954-4.356 4.356l.005.232a.9.9 0 0 1-.666.917c-2.01.531-3.579 2.191-3.997 4.225a.89.89 0 0 1-.424.592c-.217.127-.479.16-.723.083a4.39 4.39 0 0 0-1.305-.197c-2.403 0-4.358 1.954-4.358 4.356 0 .463.074.921.219 1.36.109.33.016.696-.239.935a5.47 5.47 0 0 0-1.755 4.04c0 .474.059.944.178 1.396.124.476-.16.964-.635 1.091a5.55 5.55 0 0 0-4.087 5.345c0 2.854 2.224 5.276 5.065 5.515a.9.9 0 0 1 .619.327c.153.187.224.431.196.671-.02.17-.032.345-.032.52 0 2.401 1.954 4.356 4.356 4.356a4.38 4.38 0 0 0 4.307-3.706c.043-.284.217-.529.472-.662s.556-.136.813-.009c2.26 1.115 5.145.49 6.744-1.481.312-.384.876-.443 1.26-.133.782.632 1.726.966 2.733.966 2.279 0 4.187-1.78 4.343-4.052a.9.9 0 0 1 .58-.777c.327-.124.698-.045.948.203 2.121 2.103 5.806 2.064 7.882-.092a.89.89 0 0 1 .691-.273c.258.013.501.136.66.341.835 1.061 2.082 1.667 3.426 1.667 1.816 0 3.46-1.145 4.088-2.848.122-.332.429-.562.782-.585a.91.91 0 0 1 .854.477 4.35 4.35 0 0 0 3.855 2.328c1.33 0 2.57-.598 3.403-1.639a.9.9 0 0 1 .702-.337c.057 0 .115.005.172.016a.9.9 0 0 1 .687.626c.578 1.958 2.177 3.433 4.174 3.851a.9.9 0 0 1 .702 1.03c-.039.24-.063.485-.063.736 0 2.401 1.954 4.356 4.358 4.356a4.35 4.35 0 0 0 3.634-1.956.9.9 0 0 1 .589-.388.88.88 0 0 1 .686.154c2.308 1.667 5.748 1.21 7.545-1.012.203-.248.522-.379.838-.321.318.05.585.266.698.565.642 1.674 2.277 2.8 4.07 2.8 2.401 0 4.356-1.954 4.356-4.356a4.38 4.38 0 0 0-3.428-4.257zm-55.495-6.879a.89.89 0 0 1-.485.144c-.296 0-.585-.145-.756-.411-.506-.788-1.292-1.321-2.209-1.499-.709-.138-1.429-.048-2.084.257a.89.89 0 0 1-1.237-.549 4.37 4.37 0 0 0-3.34-3.001 4.36 4.36 0 0 0-5.115 3.451c-.095.486-.571.799-1.052.709-.486-.095-.804-.565-.709-1.052.648-3.333 3.889-5.52 7.218-4.869a6.15 6.15 0 0 1 4.368 3.361c.745-.192 1.522-.221 2.292-.07a5.14 5.14 0 0 1 3.376 2.288.9.9 0 0 1-.269 1.24zm20.89-15.224a.9.9 0 0 1-1.269.065c-1.149-1.039-2.717-1.387-4.196-.94-1.542.468-2.697 1.743-3.013 3.326a.89.89 0 0 1-.434.603.91.91 0 0 1-.741.068 3.37 3.37 0 0 0-2.098-.041c-.897.271-1.622.881-2.046 1.718-.158.312-.474.492-.802.492a.88.88 0 0 1-.404-.097.9.9 0 0 1-.397-1.206 5.14 5.14 0 0 1 3.126-2.624 5.2 5.2 0 0 1 2.286-.165 6.15 6.15 0 0 1 4-3.79c2.057-.626 4.327-.117 5.922 1.324a.9.9 0 0 1 .065 1.269zm25.951 17.92a.9.9 0 0 1-.874.7.94.94 0 0 1-.199-.022c-.485-.109-.786-.59-.677-1.073.258-1.136.057-2.306-.565-3.291a4.33 4.33 0 0 0-2.728-1.927c-1.567-.355-3.205.181-4.262 1.402-.17.196-.467.359-.678.309-.258 0-.504-.111-.675-.307-.476-.542-1.098-.913-1.804-1.073-.915-.208-1.849-.036-2.629.481a.9.9 0 0 1-1.244-.253.9.9 0 0 1 .253-1.244 5.15 5.15 0 0 1 4.015-.736 5.17 5.17 0 0 1 2.069.987c1.463-1.247 3.437-1.75 5.35-1.317a6.11 6.11 0 0 1 3.85 2.721 6.12 6.12 0 0 1 .799 4.645z"/></svg>